HIERARCHY
ROOT Hips
{
  OFFSET 0 0 0
  CHANNELS 6 Xposition Yposition Zposition Zrotation Yrotation Xrotation
  JOINT LeftThigh
  {
    OFFSET 8.409438 0 -5.917753
    CHANNELS 3 Zrotation Yrotation Xrotation
    JOINT LeftLeg
    {
      OFFSET 0 0 -42.358652
      CHANNELS 3 Zrotation Yrotation Xrotation
      JOINT LeftFoot
      {
        OFFSET 0 0 -39.357303
        CHANNELS 3 Zrotation Yrotation Xrotation
      }
    }
  }
  JOINT RightThigh
  {
    OFFSET -8.409438 0 -5.917753
    CHANNELS 3 Zrotation Yrotation Xrotation
    JOINT RightLeg
    {
      OFFSET 0 0 -42.358652
      CHANNELS 3 Zrotation Yrotation Xrotation
      JOINT RightFoot
      {
        OFFSET 0 0 -39.357303
        CHANNELS 3 Zrotation Yrotation Xrotation
      }
    }
  }
  JOINT SpineLow
  {
    OFFSET 0 0 4.719101
    CHANNELS 3 Zrotation Yrotation Xrotation
    JOINT SpineMid
    {
      OFFSET 0 0 12.899191
      CHANNELS 3 Zrotation Yrotation Xrotation
      JOINT Chest
      {
        OFFSET 0 0 12.899191
        CHANNELS 3 Zrotation Yrotation Xrotation
        JOINT LeftShoulder
        {
          OFFSET 7.550562 1.41573 9.438202
          CHANNELS 3 Zrotation Yrotation Xrotation
          JOINT LeftArm
          {
            OFFSET 9.155056 0 4.247191
            CHANNELS 3 Zrotation Yrotation Xrotation
            JOINT LeftForearm
            {
              OFFSET 0 0 25.771955
              CHANNELS 3 Zrotation Yrotation Xrotation
              JOINT LeftHand
              {
                OFFSET 0 0 25.197169
                CHANNELS 3 Zrotation Yrotation Xrotation
              }
            }
          }
        }
        JOINT RightShoulder
        {
          OFFSET -7.550562 1.41573 9.438202
          CHANNELS 3 Zrotation Yrotation Xrotation
          JOINT RightArm
          {
            OFFSET -9.155056 0 4.247191
            CHANNELS 3 Zrotation Yrotation Xrotation
            JOINT RightForearm
            {
              OFFSET 0 0 -25.771955
              CHANNELS 3 Zrotation Yrotation Xrotation
              JOINT RightHand
              {
                OFFSET 0 0 -25.197169
                CHANNELS 3 Zrotation Yrotation Xrotation
              }
            }
          }
        }
        JOINT Neck
        {
          OFFSET 0 0 15.101124
          CHANNELS 3 Zrotation Yrotation Xrotation
          JOINT Head
          {
            OFFSET 0 0 11.325843
            CHANNELS 3 Zrotation Yrotation Xrotation
            End Site
            {
              OFFSET 0 0 14.157303
            }
          }
        }
      }
    }
  }
}
MOTION
Frames: 17
Frame Time: 0.0
0.0  89.887642  0.0  -1.418266  -8.633553  -96.175255  12.30329  -14.12996  4.593325  -0.931084  -1.206157  10.030228  2.038891  -0.232915  0.914265  -12.23784  9.073062  1.469549  -9.644784  5.604848  7.011212  1.068431  0.132156  0.637217  -1.202558  -0.356865  0.433509  -3.293558  -0.953589  1.202435  -3.293558  -0.953589  1.202435  -6.419993  10.334385  8.67247  150.296737  29.885496  -156.501964  12.698335  1.932361  66.965018  76.444798  7.085007  -21.277049  -1.704522  -13.035291  14.687357  87.690356  25.092039  44.227894  3.463375  33.606202  -41.925171  98.622709  -1.649309  -12.462263  -11.315476  -8.061742  -26.528455  -8.844555  -5.570143  -20.021219  
0.0  89.887642  0.0  -1.407457  -8.379381  -96.196544  12.091704  -14.089453  4.606192  -0.906431  -1.239288  10.021009  1.994594  -0.238315  0.882257  -12.341321  9.100162  1.48044  -9.667139  5.643249  7.144159  1.057253  0.140171  0.613401  -1.17022  -0.340698  0.457435  -3.205178  -0.908845  1.266572  -3.205178  -0.908845  1.266572  -6.485898  9.992233  8.385363  149.658228  29.595195  -156.417658  12.250372  2.10696  66.209458  76.430378  7.042162  -21.339886  -1.836114  -13.062363  14.493301  87.527723  24.655086  44.219074  2.946104  33.091116  -41.908059  98.166528  -1.741528  -12.253669  -11.585904  -8.045372  -26.596105  -9.047825  -5.544943  -20.075692  
0.0  89.887642  0.0  -1.363586  -8.052861  -96.198246  11.819631  -14.015134  4.625612  -0.944412  -1.256229  9.947934  2.023903  -0.242078  0.896973  -12.438985  9.165728  1.488698  -9.746871  5.695242  7.260841  1.034124  0.1226  0.584803  -1.170637  -0.322681  0.468307  -3.206096  -0.859077  1.29541  -3.206096  -0.859077  1.295411  -6.379252  9.70972  8.186907  149.348406  29.376443  -156.348175  12.062378  2.350584  65.721817  76.429259  7.05507  -21.40563  -1.872364  -13.033609  14.360627  87.201999  24.351342  44.115926  2.592661  32.575717  -41.948376  97.812174  -1.985757  -11.939949  -11.770683  -8.017593  -26.621668  -9.185735  -5.515588  -20.097249  
0.0  89.887642  0.0  -1.34287  -7.612687  -96.179395  11.4346  -13.939161  4.632707  -0.976541  -1.285041  9.861753  2.063163  -0.233722  0.91931  -12.833005  9.208535  1.415496  -9.51738  5.761029  7.465153  0.980451  0.109179  0.532016  -1.173954  -0.311109  0.473668  -3.214993  -0.827129  1.309536  -3.214993  -0.827129  1.309536  -6.505295  9.489894  7.982121  149.554665  29.271308  -156.330852  12.21951  2.697144  65.573527  77.344674  6.831152  -20.768572  -2.070441  -12.987728  14.224272  87.019679  23.973239  44.134916  2.039984  32.135748  -42.092274  97.548746  -2.252393  -11.558976  -11.980576  -7.950191  -26.624643  -9.340545  -5.455745  -20.101776  
0.0  89.887642  0.0  -1.277989  -7.197764  -96.213017  11.03633  -13.836077  4.698594  -0.971871  -1.310383  9.774058  2.093933  -0.234819  0.930617  -12.955117  9.314535  1.452005  -9.659407  5.837843  7.618755  0.933381  0.070706  0.467649  -1.183754  -0.295076  0.478635  -3.241507  -0.782879  1.322437  -3.241507  -0.782879  1.322437  -6.426528  9.326254  7.941057  149.666198  29.385084  -156.197532  12.412021  3.119518  65.461473  77.297332  7.018137  -20.593669  -2.136772  -12.930395  14.164795  86.510954  23.786629  43.974326  1.779964  31.89522  -42.197202  97.284661  -2.497544  -11.149327  -12.183511  -7.887249  -26.628365  -9.490332  -5.399541  -20.106772  
0.0  89.887642  0.0  -1.237881  -6.676705  -96.250194  10.605014  -13.76708  4.804038  -0.937565  -1.327509  9.695328  2.046039  -0.244833  0.880337  -13.508785  9.388905  1.363462  -9.378452  5.954067  7.915638  0.849703  0.038372  0.376471  -1.194315  -0.284981  0.490129  -3.270294  -0.754513  1.353469  -3.270294  -0.754513  1.353468  -6.657413  9.196664  7.840831  149.728726  29.697937  -156.100373  12.347618  3.643056  65.35049  77.169221  7.332353  -20.301377  -2.27962  -12.872936  14.098219  85.84276  23.717403  43.839637  1.574847  31.803273  -42.437099  97.030143  -2.681531  -10.734104  -12.405169  -7.786431  -26.661857  -9.65307  -5.313447  -20.133826  
0.0  89.887642  0.0  -1.139834  -6.131714  -96.330748  10.067034  -13.622429  4.916507  -0.893561  -1.368641  9.603693  2.065798  -0.235785  0.894848  -13.692234  9.554885  1.425075  -9.702654  6.053949  8.12072  0.812976  0.022327  0.289939  -1.2213  -0.271111  0.492881  -3.343788  -0.715918  1.360583  -3.343788  -0.715918  1.360583  -6.690042  9.201073  7.892525  149.812402  30.018395  -156.016063  12.383923  4.167778  65.32955  76.966629  7.751583  -19.920466  -2.443224  -12.719959  14.092625  85.193948  23.624284  43.536742  1.497838  31.836129  -42.600962  96.72584  -2.867236  -10.329372  -12.636095  -7.703213  -26.673318  -9.823163  -5.240604  -20.144659  
0.0  89.887642  0.0  -1.064549  -5.570865  -96.445199  9.717568  -13.567205  5.123947  -0.925563  -1.391164  9.476087  2.00215  -0.209868  0.859408  -14.295757  9.691165  1.372678  -10.00236  6.164538  8.359894  1.020672  0.085464  0.224149  -1.237899  -0.26343  0.501679  -3.389085  -0.694132  1.384404  -3.389085  -0.694132  1.384404  -6.970989  9.237664  7.921182  149.698079  30.413255  -155.981482  11.579312  4.565365  65.165361  76.807947  8.336126  -19.001294  -2.678721  -12.528736  14.122577  84.379082  23.681212  43.145758  1.547503  31.919557  -42.83482  96.428289  -3.066983  -9.907994  -12.941397  -7.573954  -26.721617  -10.04774  -5.129131  -20.183461  
0.0  89.887642  0.0  -0.96063  -4.860951  -96.51869  9.134584  -13.440346  5.202194  -0.96658  -1.401049  9.382417  2.031572  -0.185402  0.878746  -14.614037  9.882306  1.428691  -10.425696  6.263658  8.614844  0.998613  0.146102  0.120133  -1.305904  -0.258383  0.494664  -3.574787  -0.679288  1.365655  -3.574787  -0.679288  1.365655  -7.040807  9.384498  8.002476  149.570422  30.685019  -156.023035  11.281817  5.112282  65.078212  76.545482  8.876145  -18.581679  -2.768106  -12.281981  14.16226  83.791072  23.651489  42.82841  1.424018  31.956736  -43.119575  96.156161  -3.32902  -9.435968  -13.13974  -7.467596  -26.734621  -10.192468  -5.040223  -20.194519  
0.0  89.887642  0.0  -0.955625  -4.455718  -96.680749  9.142473  -13.56441  5.407208  -1.214306  -1.341692  9.208359  1.887742  -0.116339  0.797813  -14.668726  9.960769  1.52664  -11.177166  6.375359  8.906244  1.223366  0.292896  0.046187  -1.284997  -0.273002  0.536996  -3.518401  -0.717413  1.481906  -3.5184  -0.717413  1.481906  -7.669774  9.476875  7.78779  148.705888  31.20022  -156.08121  9.162898  5.640776  64.444653  77.144834  9.405259  -17.173784  -3.017149  -12.097117  14.022208  83.19666  23.751915  42.52539  1.319806  32.037305  -43.432627  95.927893  -3.660484  -8.802854  -13.589767  -7.345232  -26.942547  -10.528198  -4.924119  -20.354816  
0.0  89.887642  0.0  -0.939572  -3.707002  -96.592687  8.813995  -13.580592  5.216046  -1.368839  -1.273606  9.193804  1.785638  -0.038855  0.763393  -14.91441  10.024705  1.304445  -11.749747  6.539483  9.44095  1.216316  0.416097  -0.049  -1.386915  -0.281127  0.525356  -3.797042  -0.73798  1.451638  -3.797042  -0.73798  1.451638  -7.667659  9.665366  7.739855  148.393688  31.41399  -156.237418  8.612134  6.188794  64.320278  76.886549  10.138532  -16.93391  -2.876096  -11.93027  13.956341  82.878457  23.839647  42.31141  1.157642  32.271419  -43.728998  95.778978  -4.073682  -7.870526  -13.703068  -7.301207  -27.014252  -10.612445  -4.884471  -20.409459  
0.0  89.887642  0.0  -0.987785  -2.946504  -96.349077  8.783207  -13.730942  4.838693  -1.819875  -1.13702  9.232966  1.71789  0.067791  0.662352  -15.146925  9.942785  0.802659  -12.550813  6.900089  10.169037  1.294379  0.566985  -0.118854  -1.456315  -0.307048  0.506105  -3.987101  -0.808423  1.401362  -3.987101  -0.808423  1.401362  -8.017054  9.930943  7.602232  147.336974  31.980733  -156.256153  7.277283  6.802299  63.623704  76.703503  10.87058  -16.737473  -2.929459  -11.764108  13.822448  82.695962  24.056601  42.116733  1.085422  32.85221  -43.958902  95.766164  -4.513436  -6.552356  -14.06794  -7.2157  -27.231408  -10.88585  -4.79925  -20.575905  
0.0  89.887642  0.0  -1.119569  -2.303663  -95.971722  8.867272  -13.917258  4.209062  -2.293475  -1.028506  9.489607  1.652339  0.181803  0.459957  -15.248355  9.707684  -0.007227  -13.293623  7.485968  11.223746  1.169762  0.749372  -0.224705  -1.559136  -0.354004  0.452644  -4.268461  -0.93796  1.25956  -4.268461  -0.93796  1.25956  -8.097116  10.333522  7.635  147.13461  32.30402  -156.347191  6.869648  7.29377  63.488918  76.615937  11.632589  -16.543277  -2.760927  -11.541693  13.787951  82.784268  24.322654  41.957141  1.120478  33.928912  -44.07529  95.878484  -4.900989  -4.875984  -14.130313  -7.155914  -27.311029  -10.931296  -4.749711  -20.635484  
0.0  89.887642  0.0  -1.325992  -1.902005  -95.46773  9.01178  -14.176042  3.379843  -2.538558  -0.875173  9.841392  1.227942  0.306801  0.060837  -14.956253  9.175486  -0.956708  -14.329958  8.263085  12.355322  1.129441  0.936098  -0.274796  -1.674693  -0.36562  0.414644  -4.584026  -0.970098  1.15815  -4.584026  -0.970098  1.15815  -7.939677  10.404163  7.604109  146.822725  32.682664  -156.41545  6.414965  7.766349  63.388262  76.604977  12.515188  -16.303106  -2.249229  -11.651938  13.627219  83.021347  24.720605  41.763195  1.379824  35.640691  -44.022903  96.012644  -5.200559  -2.957491  -14.213505  -7.323384  -27.507794  -11.003465  -4.867608  -20.786748  
0.0  89.887642  0.0  -1.574794  -1.710092  -94.910818  9.111647  -14.542161  2.324423  -2.343539  -0.640577  10.468992  1.016255  0.425883  -0.13286  -14.091631  8.461564  -1.749019  -15.159918  8.990494  13.339044  0.962939  1.189024  -0.229934  -1.733819  -0.416447  0.346677  -4.745494  -1.11277  0.976978  -4.745494  -1.11277  0.976978  -8.067093  10.731047  7.723298  146.570945  33.02318  -156.529609  5.972043  8.200954  63.41839  76.61356  13.480102  -15.966517  -2.017346  -11.532324  13.617238  83.511308  25.225369  41.54414  1.927944  37.946916  -43.769805  95.950181  -5.470071  -0.844086  -14.207363  -7.373095  -27.56328  -11.001714  -4.904044  -20.829025  
0.0  89.887642  0.0  -1.831459  -1.672157  -94.386019  9.510973  -14.91403  1.033154  -3.104069  -0.321094  10.793083  1.607623  0.551766  0.268032  -12.686036  7.6358  -2.651513  -15.991201  9.754404  14.58302  -0.252028  1.136281  -0.353522  -1.791907  -0.456909  0.25864  -4.903342  -1.228953  0.740442  -4.903342  -1.228953  0.740442  -8.204477  11.026121  8.079912  146.336818  33.30246  -156.602199  5.38186  8.647687  63.442854  76.577591  14.387165  -15.601086  -1.663491  -11.529615  13.826127  84.183871  25.914462  41.348515  2.798282  40.599403  -43.315323  95.579309  -5.756899  1.401607  -14.327259  -7.414757  -27.620079  -11.094276  -4.928732  -20.873934  
0.0  89.887642  0.0  -2.076867  -1.873282  -93.957207  10.531206  -15.211146  -0.162125  -3.354526  -0.08451  11.651267  1.441709  0.535141  0.16655  -10.68216  6.73944  -3.718667  -16.784881  10.546772  16.055705  -0.162249  1.461754  -0.283965  -1.819871  -0.468209  0.220346  -4.979214  -1.26238  0.637193  -4.979213  -1.26238  0.637193  -8.476114  11.09434  8.354596  146.204008  33.493676  -156.575523  4.698735  9.127238  63.464718  76.465375  15.031341  -15.151821  -1.352582  -11.794477  13.743984  85.301446  26.577424  41.271839  3.975332  43.332612  -42.586684  94.909618  -6.102655  4.008977  -14.231564  -7.642487  -27.636368  -11.032205  -5.104053  -20.888333  
